{"title":"Last Breath [2010] DVDRip XviD [DAYN]-D3MT","uid":6315255,"size":791272844,"categoryP":"video","categoryS":"movies","magnet":"?xt=urn:btih:39450875b5174efde5f82d53b96a0554150f2d31&amp;dn=Last+Breath+%5B2010%5D+DVDRip+XviD+%5BDAYN%5D-D3MT&amp;tr=udp%3A%2F%2Ftracker.openbittorrent.com%3A80&amp;tr=udp%3A%2F%2Fopen.demonii.com%3A1337&amp;tr=udp%3A%2F%2Ftracker.coppersurfer.tk%3A6969&amp;tr=udp%3A%2F%2Fexodus.desync.com%3A6969","seeders":0,"leechers":1,"uploader":"arihantkatariya","files":2,"time":1302685046,"description":"Format                           : AVI\nFormat/Info                      : Audio Video Interleave\nFile size                        : 720 MiB\nDuration                         : 1h 30mn\nOverall bit rate                 : 1 108 Kbps\nWriting application              : Lavf52.39.1\n\nVideo\nID                               : 0\nFormat                           : MPEG-4 Visual\nFormat settings, BVOP            : Yes\nFormat settings, QPel            : No\nFormat settings, GMC             : No warppoints\nFormat settings, Matrix          : Default (H.263)\nCodec ID                         : DX50\nCodec ID/Hint                    : DivX 5\nDuration                         : 1h 30mn\nBit rate                         : 1 031 Kbps\nWidth                            : 624 pixels\nHeight                           : 272 pixels\nDisplay aspect ratio             : 2.25:1\nFrame rate                       : 25.000 fps\nColor space                      : YUV\nChroma subsampling               : 4:2:0\nBit depth                        : 8 bits\nScan type                        : Progressive\nCompression mode                 : Lossy\nBits/(Pixel*Frame)               : 0.243\nStream size                      : 670 MiB (93%)\nWriting library                  : DivX 6.8.5 (UTC 2009-08-20)\n\nAudio\nID                               : 1\nFormat                           : MPEG Audio\nFormat version                   : Version 1\nFormat profile                   : Layer 3\nMode                             : Joint stereo\nMode extension                   : MS Stereo\nCodec ID                         : 55\nCodec ID/Hint                    : MP3\nDuration                         : 1h 30mn\nBit rate mode                    : Constant\nBit rate                         : 64.0 Kbps\nChannel(s)                       : 2 channels\nSampling rate                    : 48.0 KHz\nCompression mode                 : Lossy\nStream size                      : 41.6 MiB (6%)\nAlignment                        : Aligned on interleaves\nInterleave, duration             : 24 ms (0.60 video frame)\n","torrent":{"xt":"urn:btih:39450875b5174efde5f82d53b96a0554150f2d31","amp;dn":"Last+Breath+%5B2010%5D+DVDRip+XviD+%5BDAYN%5D-D3MT","amp;tr":["udp%3A%2F%2Ftracker.openbittorrent.com%3A80","udp%3A%2F%2Fopen.demonii.com%3A1337","udp%3A%2F%2Ftracker.coppersurfer.tk%3A6969","udp%3A%2F%2Fexodus.desync.com%3A6969"],"infoHash":"39450875b5174efde5f82d53b96a0554150f2d31","infoHashBuffer":{"type":"Buffer","data":[57,69,8,117,181,23,78,253,229,248,45,83,185,106,5,84,21,15,45,49]},"announce":[],"urlList":[]}}